<svg width="20" height="21" viewBox="0 0 20 21" fill="none" xmlns="http://www.w3.org/2000/svg">
<path d="M7.5 8.625C7.5 7.96094 6.91406 7.375 6.25 7.375H5.625C4.21875 7.375 3.125 8.50781 3.125 9.875V11.75C3.125 13.1562 4.21875 14.25 5.625 14.25H6.25C6.91406 14.25 7.5 13.7031 7.5 13V8.625ZM14.375 14.25C15.7422 14.25 16.875 13.1562 16.875 11.75V9.875C16.875 8.50781 15.7422 7.375 14.375 7.375H13.75C13.0469 7.375 12.5 7.96094 12.5 8.625V13C12.5 13.7031 13.0469 14.25 13.75 14.25H14.375ZM10 0.5C4.41406 0.5 0.15625 5.14844 0 10.5V11.125C0 11.4766 0.273438 11.75 0.625 11.75H1.25C1.5625 11.75 1.875 11.4766 1.875 11.125V10.5C1.875 6.04688 5.50781 2.375 10 2.375C14.4531 2.375 18.125 6.04688 18.125 10.5H18.0859C18.0859 10.6172 18.125 16.9844 18.125 16.9844C18.125 17.9219 17.3828 18.625 16.4453 18.625H12.5C12.5 17.6094 11.6406 16.75 10.625 16.75H9.375C8.32031 16.75 7.5 17.6094 7.5 18.625C7.5 19.6797 8.32031 20.5 9.375 20.5H16.4453C18.3984 20.5 20 18.9375 20 16.9844V10.5C19.8047 5.14844 15.5469 0.5 10 0.5Z" fill="black"/>
</svg>
