<svg width="31" height="28" viewBox="0 0 31 28" fill="none" xmlns="http://www.w3.org/2000/svg">
<path d="M29.9982 5.66342C29.528 4.57855 28.85 3.59546 28.0022 2.76916C27.1537 1.94041 26.1534 1.28181 25.0556 0.829174C23.9172 0.35796 22.6962 0.116765 21.4635 0.119592C19.7341 0.119592 18.0468 0.591482 16.5805 1.48283C16.2297 1.69605 15.8965 1.93025 15.5808 2.18542C15.2651 1.93025 14.9318 1.69605 14.581 1.48283C13.1147 0.591482 11.4275 0.119592 9.69808 0.119592C8.45278 0.119592 7.24607 0.357285 6.10601 0.829174C5.00454 1.28359 4.01181 1.93724 3.15939 2.76916C2.31048 3.59452 1.63234 4.57785 1.16341 5.66342C0.675817 6.79246 0.426758 7.99141 0.426758 9.22531C0.426758 10.3893 0.665294 11.6022 1.13886 12.8361C1.53525 13.8673 2.10352 14.9369 2.82965 16.017C3.98024 17.7263 5.56229 19.509 7.5267 21.3162C10.782 24.3118 14.0058 26.3811 14.1426 26.465L14.9739 26.9963C15.3423 27.2305 15.8158 27.2305 16.1841 26.9963L17.0155 26.465C17.1523 26.3776 20.3725 24.3118 23.6314 21.3162C25.5958 19.509 27.1778 17.7263 28.3284 16.017C29.0545 14.9369 29.6263 13.8673 30.0192 12.8361C30.4928 11.6022 30.7313 10.3893 30.7313 9.22531C30.7348 7.99141 30.4858 6.79246 29.9982 5.66342ZM15.5808 24.2314C15.5808 24.2314 3.09274 16.2582 3.09274 9.22531C3.09274 5.66342 6.04989 2.77615 9.69808 2.77615C12.2623 2.77615 14.4863 4.20231 15.5808 6.28561C16.6752 4.20231 18.8992 2.77615 21.4635 2.77615C25.1117 2.77615 28.0688 5.66342 28.0688 9.22531C28.0688 16.2582 15.5808 24.2314 15.5808 24.2314Z" fill="black"/>
</svg>
