<svg width="148" height="121" viewBox="0 0 148 121" fill="none" xmlns="http://www.w3.org/2000/svg">
<path d="M136.51 10.6639C139.063 13.029 141.183 15.6173 142.869 18.4286C144.555 21.2399 145.832 24.1628 146.699 27.1973C147.566 30.2318 148 33.3109 148 36.4346C148 39.5583 147.59 42.6374 146.771 45.6718C145.952 48.7063 144.676 51.6292 142.941 54.4406C141.207 57.2519 139.063 59.8401 136.51 62.2052L74 120.039L11.4902 62.2052C8.93685 59.8401 6.81706 57.2519 5.13086 54.4406C3.44466 51.6292 2.16797 48.7286 1.30078 45.7388C0.433594 42.7489 0 39.6699 0 36.5015C0 33.3332 0.409505 30.2318 1.22852 27.1973C2.04753 24.1628 3.32422 21.2399 5.05859 18.4286C6.79297 15.6173 8.93685 13.029 11.4902 10.6639C15.248 7.22785 19.5117 4.59501 24.2812 2.7654C29.0508 0.935798 34.0612 0.0209961 39.3125 0.0209961C44.5638 0.0209961 49.5742 0.935798 54.3438 2.7654C59.1133 4.59501 63.377 7.22785 67.1348 10.6639L74 17.0899L80.8652 10.6639C84.623 7.22785 88.8867 4.59501 93.6562 2.7654C98.4258 0.935798 103.436 0.0209961 108.688 0.0209961C113.939 0.0209961 118.949 0.935798 123.719 2.7654C128.488 4.59501 132.752 7.22785 136.51 10.6639Z" fill="black"/>
</svg>
