<svg width="30" height="40" viewBox="0 0 30 40" fill="none" xmlns="http://www.w3.org/2000/svg">
<path d="M26.25 5H20C20 2.26562 17.7344 0 15 0C12.1875 0 10 2.26562 10 5H3.75C1.64062 5 0 6.71875 0 8.75V36.25C0 38.3594 1.64062 40 3.75 40H26.25C28.2812 40 30 38.3594 30 36.25V8.75C30 6.71875 28.2812 5 26.25 5ZM15 3.125C16.0156 3.125 16.875 3.98438 16.875 5C16.875 6.09375 16.0156 6.875 15 6.875C13.9062 6.875 13.125 6.09375 13.125 5C13.125 3.98438 13.9062 3.125 15 3.125ZM26.25 35.7812C26.25 36.0938 26.0156 36.25 25.7812 36.25H4.21875C3.90625 36.25 3.75 36.0938 3.75 35.7812V9.21875C3.75 8.98438 3.90625 8.75 4.21875 8.75H7.5V11.5625C7.5 12.1094 7.89062 12.5 8.4375 12.5H21.5625C22.0312 12.5 22.5 12.1094 22.5 11.5625V8.75H25.7812C26.0156 8.75 26.25 8.98438 26.25 9.21875V35.7812Z" fill="white"/>
</svg>
